<?xml version="1.0" standalone="no"?>
<!DOCTYPE svg PUBLIC "-//W3C//DTD SVG 20010904//EN"
 "http://www.w3.org/TR/2001/REC-SVG-20010904/DTD/svg10.dtd">
<svg version="1.0" xmlns="http://www.w3.org/2000/svg"
 width="930.000000pt" height="930.000000pt" viewBox="0 0 930.000000 930.000000"
 preserveAspectRatio="xMidYMid meet">
<metadata>
Created by potrace 1.11, written by Peter Selinger 2001-2013
</metadata>
<g transform="translate(0.000000,930.000000) scale(0.100000,-0.100000)"
fill="#000000" stroke="none">
<path d="M7090 9100 c-25 -5 -62 -11 -84 -15 -128 -22 -300 -111 -385 -200
l-53 -55 -98 0 c-96 0 -98 1 -116 28 -65 100 -245 174 -390 159 -106 -11 -215
-99 -283 -228 -17 -33 -31 -61 -31 -64 0 -2 29 -18 65 -34 199 -92 314 -229
321 -380 3 -71 -1 -81 -90 -284 -109 -246 -428 -898 -497 -1017 -64 -111 -145
-184 -296 -267 -59 -34 -83 -52 -79 -63 2 -8 20 -54 40 -102 48 -115 76 -227
76 -307 0 -66 -13 -111 -260 -876 -27 -82 -81 -251 -120 -375 -109 -344 -106
-338 -139 -354 -32 -16 -86 -6 -111 20 -16 17 -39 83 -128 364 -43 135 -175
548 -232 725 -27 83 -63 195 -80 250 -17 55 -36 113 -42 128 -12 32 -15 123
-6 182 7 43 43 168 58 200 18 39 60 138 60 141 0 1 -33 20 -72 41 -65 34 -149
92 -216 148 -42 36 -89 109 -112 175 -13 36 -27 70 -32 77 -15 19 -172 4 -285
-26 -49 -13 -121 -45 -147 -65 -18 -14 -17 -19 22 -133 215 -623 292 -864 418
-1303 13 -47 29 -101 34 -120 78 -267 243 -954 265 -1100 4 -25 8 -47 10 -51
4 -5 59 -314 70 -394 8 -51 13 -83 19 -115 3 -14 8 -45 11 -70 2 -25 7 -56 10
-70 3 -14 8 -99 10 -190 7 -272 -26 -363 -145 -402 -65 -22 -126 -15 -175 21
-110 79 -116 254 -13 370 l27 30 -37 3 c-62 5 -164 -12 -217 -36 -122 -57
-184 -170 -187 -341 -4 -206 94 -380 272 -486 194 -115 399 -139 612 -72 15 5
16 1 1 -54 -16 -64 -70 -200 -87 -222 -9 -11 -6 -12 13 -6 70 22 141 7 141
-30 0 -12 20 -15 113 -16 61 0 163 -1 224 -2 l113 -2 11 28 c14 34 46 43 101
29 23 -6 43 -10 45 -9 1 2 -9 25 -22 53 -27 56 -75 198 -75 221 0 11 5 13 18
8 99 -41 261 -47 387 -15 103 26 246 97 311 154 113 99 175 237 178 396 4 141
-26 232 -98 305 -67 69 -172 102 -303 96 l-33 -1 34 -45 c44 -57 60 -106 59
-181 -1 -138 -99 -227 -224 -204 -106 20 -144 61 -169 184 -19 92 -19 274 0
416 23 176 82 520 121 714 50 246 47 234 53 254 3 9 7 28 10 42 24 136 168
692 255 990 29 96 117 402 197 680 231 804 396 1346 434 1425 5 11 19 45 31
75 11 30 25 61 31 67 14 17 118 17 119 1 0 -7 0 -39 -1 -70 -1 -46 2 -58 14
-58 34 0 247 -88 394 -162 85 -43 157 -77 158 -75 2 2 6 32 9 68 7 91 16 180
20 209 2 14 7 52 10 85 5 63 32 263 40 305 3 13 7 42 10 65 26 183 119 347
227 398 75 36 180 25 258 -27 83 -55 117 -194 70 -290 -56 -117 -166 -132
-303 -41 l-29 18 16 -37 c25 -60 51 -89 111 -125 49 -30 66 -35 124 -35 56 -1
77 4 133 32 115 57 183 138 216 259 35 126 11 275 -63 398 -46 76 -83 115
-165 171 -99 67 -191 96 -325 99 -60 1 -130 -1 -155 -5z"/>
<path d="M1913 9070 c-55 -12 -137 -47 -198 -85 -145 -92 -238 -253 -249 -429
-15 -224 149 -426 355 -440 99 -6 249 101 249 179 0 13 -7 11 -37 -10 -76 -51
-164 -60 -220 -22 -46 31 -83 104 -83 161 0 148 83 243 218 250 99 5 139 -9
203 -73 103 -103 184 -324 214 -581 2 -14 5 -45 8 -70 3 -25 9 -72 12 -105 3
-33 8 -80 11 -105 5 -50 10 -115 19 -235 3 -44 8 -100 10 -125 2 -25 7 -99 10
-165 4 -66 8 -145 10 -175 3 -56 16 -377 20 -530 2 -47 6 -305 10 -575 8 -598
15 -557 -133 -815 -54 -96 -107 -190 -116 -207 l-16 -33 114 -175 c63 -97 123
-199 132 -228 14 -40 18 -84 17 -192 0 -148 -9 -575 -19 -935 l-6 -215 44 -60
c87 -116 206 -222 355 -313 79 -49 212 -116 218 -110 12 12 27 665 29 1276 l2
517 56 115 c31 63 79 162 107 219 45 91 49 106 37 120 -7 9 -53 61 -101 116
-48 55 -94 115 -102 134 -15 36 -18 80 -28 441 -8 307 -20 629 -30 865 -2 44
-6 154 -10 245 -3 90 -8 191 -10 225 -2 33 -7 134 -11 225 -3 91 -8 185 -9
210 -1 25 -6 110 -9 190 -4 80 -9 170 -11 200 -2 30 -7 111 -10 179 -3 68 -6
127 -7 130 -3 28 6 17 27 -33 61 -149 163 -203 279 -146 66 31 69 39 37 90
-57 95 -89 218 -86 338 4 152 73 246 239 327 39 19 94 40 121 47 28 7 51 13
53 14 5 3 -38 86 -68 129 -44 63 -99 113 -156 141 -125 61 -355 9 -455 -104
-21 -25 -39 -48 -39 -53 0 -4 -45 -8 -99 -7 l-99 0 -35 36 c-84 91 -158 139
-276 182 -79 29 -97 34 -195 50 -66 10 -241 10 -293 0z"/>
<path d="M4509 7866 c-2 -2 -55 -7 -116 -11 -62 -3 -123 -8 -135 -10 -23 -4
-71 -10 -158 -20 -25 -3 -70 -10 -100 -15 -30 -5 -71 -12 -90 -15 -164 -27
-438 -98 -600 -156 l-85 -30 0 -154 c0 -84 3 -157 7 -160 3 -4 15 -2 25 3 43
23 319 91 433 107 25 3 52 8 60 10 8 2 42 6 75 9 106 11 169 18 195 21 156 23
815 23 1105 0 22 -1 87 -6 145 -9 l105 -7 77 168 c80 173 96 213 84 202 -4 -4
-24 -3 -44 2 -53 11 -235 37 -317 44 -38 4 -86 9 -105 11 -42 6 -556 14 -561
10z"/>
<path d="M6309 7533 c-4 -25 -8 -99 -14 -263 -4 -102 -8 -187 -10 -190 -7 -11
11 -27 73 -64 166 -100 347 -263 480 -431 35 -44 69 -87 76 -96 8 -9 15 -20
17 -25 2 -5 25 -40 50 -79 115 -175 191 -358 289 -695 12 -41 28 -95 36 -120
19 -66 95 -372 97 -392 1 -14 11 -18 47 -18 157 -1 303 -95 373 -240 27 -56
31 -78 34 -158 2 -74 -2 -104 -19 -150 -59 -161 -206 -270 -373 -276 l-50 -2
-7 -60 c-16 -143 -196 -794 -258 -929 -5 -11 -28 -65 -51 -120 l-42 -100 -1
-398 c-1 -218 2 -397 6 -397 9 0 444 432 558 556 110 118 199 218 291 326 l75
86 -2 114 c0 62 1 118 3 123 2 6 41 10 98 9 l95 -2 78 107 c130 176 218 310
317 485 94 167 117 185 233 193 66 5 84 2 125 -17 88 -41 124 -112 112 -221
l-7 -58 31 10 c59 21 99 76 121 167 37 159 6 288 -86 358 -45 35 -147 61 -220
58 -48 -2 -55 0 -49 14 14 38 17 73 7 102 l-11 30 67 0 c212 0 315 105 309
313 -4 122 -80 247 -151 247 -14 0 -15 -8 -11 -51 8 -78 -8 -128 -53 -171 -48
-44 -106 -62 -187 -55 -108 9 -126 23 -200 162 -68 127 -204 344 -310 491
l-90 125 -75 -2 c-41 0 -91 -1 -110 0 l-36 1 1 118 c0 64 -2 129 -5 143 -6 31
-44 77 -284 344 -164 182 -636 648 -716 706 -75 55 -207 145 -310 211 -85 55
-337 188 -355 188 -3 0 -6 -3 -6 -7z"/>
<path d="M833 7389 c-82 -15 -100 -40 -103 -149 -1 -30 -2 -55 -3 -56 -1 -1
-40 -4 -87 -8 -47 -3 -92 -7 -100 -9 -8 -2 -33 -7 -55 -12 -55 -11 -155 -59
-192 -92 -54 -50 -92 -148 -95 -249 -3 -120 46 -211 151 -281 87 -58 97 -57
96 10 -3 122 45 228 122 274 39 23 60 27 126 29 140 3 231 -29 312 -112 60
-61 101 -127 161 -263 76 -169 81 -211 83 -702 1 -452 -2 -484 -49 -561 -10
-17 -118 -131 -239 -253 -122 -121 -221 -225 -221 -229 0 -5 72 -81 160 -170
285 -288 297 -302 322 -363 23 -58 23 -60 25 -553 2 -509 -2 -575 -38 -682
-43 -129 -185 -300 -293 -355 -88 -44 -206 -59 -321 -38 -62 11 -92 31 -121
81 -22 38 -28 61 -32 140 -3 52 -7 94 -10 94 -3 0 -26 -12 -51 -27 -183 -106
-231 -247 -144 -420 80 -157 214 -214 446 -190 64 7 59 15 59 -83 1 -68 8 -83
53 -104 61 -29 164 -18 197 21 8 10 15 57 18 131 l5 116 203 0 c130 0 202 4
203 11 2 34 8 169 13 289 4 77 10 142 15 145 7 5 172 6 289 2 l22 -1 -2 -197
-3 -197 85 -49 c510 -294 1197 -556 1740 -661 71 -14 139 -26 170 -31 19 -3
58 -10 85 -15 53 -10 87 -14 230 -30 50 -6 104 -13 120 -15 209 -27 733 -27
1030 1 58 5 308 40 351 48 12 2 37 7 55 10 19 3 68 12 109 21 41 9 83 18 94
20 16 4 88 24 149 41 16 5 17 26 17 259 l0 253 -52 -14 c-29 -8 -66 -17 -83
-20 -16 -3 -55 -11 -85 -18 -30 -8 -73 -17 -95 -22 -22 -4 -44 -8 -50 -10 -8
-2 -201 -39 -257 -49 -9 -2 -38 -6 -65 -10 -26 -4 -59 -9 -73 -11 -350 -58
-905 -76 -1190 -39 -14 1 -54 6 -90 10 -36 4 -74 9 -85 11 -11 2 -45 8 -75 14
-30 5 -66 12 -80 15 -14 2 -35 7 -48 9 -13 3 -31 7 -40 10 -9 3 -28 7 -42 10
-14 2 -65 16 -114 31 -560 164 -996 480 -1311 950 -136 203 -265 505 -322 750
-2 11 -7 34 -11 50 -4 17 -7 440 -7 940 l0 910 28 105 c16 58 30 110 31 115
12 54 73 218 121 320 50 107 101 189 167 269 l49 59 -2 166 c-3 151 -18 337
-34 412 -7 32 -17 33 -79 3 -16 -8 -33 -14 -38 -14 -13 0 -122 -49 -212 -96
-64 -33 -80 -46 -82 -65 -13 -216 -26 -363 -30 -368 -5 -5 -285 -8 -299 -4 -7
2 -10 80 -10 224 0 121 -3 223 -8 226 -4 2 -100 5 -212 5 l-205 0 0 113 c0
109 -1 115 -25 139 -14 14 -38 28 -53 32 -15 3 -31 7 -37 8 -5 1 -29 -1 -52
-5z"/>
<path d="M6277 6743 c-2 -4 -6 -48 -7 -98 -1 -49 -3 -117 -5 -150 -2 -52 -7
-184 -20 -565 -2 -47 -6 -193 -9 -325 -8 -281 -11 -312 -31 -361 -12 -29 -63
-103 -85 -124 -4 -4 -139 -174 -173 -218 -7 -8 26 -72 113 -217 123 -205 148
-266 143 -340 -1 -16 -5 -255 -9 -530 -10 -653 -9 -1406 0 -1880 13 -641 13
-641 -16 -706 -14 -30 -41 -70 -59 -87 -61 -58 -178 -79 -280 -52 -52 14 -168
73 -197 101 -12 10 -24 19 -28 19 -4 0 -4 -34 -1 -76 11 -133 72 -230 175
-281 51 -25 67 -28 162 -28 96 0 110 3 165 29 73 36 141 104 180 179 33 62 28
60 138 59 27 0 50 -2 52 -4 1 -1 5 -19 8 -38 15 -108 64 -264 115 -365 99
-200 286 -348 499 -395 46 -11 181 -14 219 -6 12 2 37 7 56 10 134 21 390 154
504 260 6 6 73 70 149 141 194 183 199 188 310 272 136 103 204 134 305 139
88 4 145 -11 221 -58 136 -83 157 -362 33 -439 -34 -20 -52 -24 -129 -24 -49
0 -105 4 -122 8 -26 7 -33 6 -33 -6 0 -27 65 -111 111 -144 60 -43 135 -62
234 -59 93 3 130 19 191 82 52 53 90 130 108 215 13 64 14 252 2 319 -26 135
-82 245 -171 336 -126 127 -256 177 -439 170 -116 -5 -134 -8 -228 -41 -96
-33 -166 -76 -226 -136 -47 -47 -112 -156 -112 -190 -1 -36 -18 -44 -100 -45
-66 -1 -80 2 -81 15 -16 192 -92 320 -234 394 -55 29 -68 31 -155 31 -82 0
-103 -3 -152 -26 -96 -45 -154 -118 -158 -198 -3 -54 -2 -55 32 -54 43 1 125
-18 165 -39 85 -45 124 -120 126 -246 2 -110 -15 -169 -65 -226 -85 -97 -249
-128 -371 -71 -59 28 -137 98 -161 145 -27 52 -44 151 -51 296 -6 137 -9 205
-20 395 -9 164 -14 279 -20 475 -3 105 -8 251 -10 325 -3 74 -7 209 -10 299
-3 90 -8 167 -10 171 -4 7 -15 919 -17 1370 -1 269 4 309 47 380 12 19 52 91
89 160 38 69 81 148 97 175 l28 51 -113 205 c-62 113 -119 223 -128 245 -16
42 -16 47 -4 569 l6 260 -107 120 c-189 210 -427 444 -436 428z"/>
<path d="M2449 1733 c-2 -15 -7 -90 -13 -208 -3 -66 -8 -154 -11 -195 -2 -41
-7 -129 -10 -195 -11 -249 -29 -309 -110 -387 -75 -72 -142 -101 -230 -101
-187 0 -308 112 -309 288 0 102 11 157 44 207 44 66 122 104 232 113 47 4 57
14 52 58 -15 126 -167 233 -322 226 -214 -9 -360 -175 -381 -434 -1 -7 -33
-11 -82 -10 l-82 0 -13 39 c-63 180 -198 298 -404 352 -77 20 -232 27 -310 13
-151 -26 -309 -141 -388 -282 -64 -114 -91 -241 -87 -411 4 -157 39 -257 120
-341 62 -63 97 -78 190 -81 164 -5 274 54 339 184 l17 33 -38 -8 c-21 -4 -78
-8 -128 -8 -113 1 -149 18 -185 90 -36 72 -35 187 2 266 30 67 64 100 138 136
48 23 67 27 150 28 86 0 101 -3 160 -31 106 -51 234 -151 435 -342 179 -169
199 -188 258 -235 106 -86 330 -186 465 -208 133 -21 240 -11 351 33 218 86
373 261 454 513 34 104 47 156 53 208 2 23 6 51 8 62 3 11 5 32 5 48 1 27 2
27 64 27 l64 0 12 -42 c21 -71 73 -159 124 -211 66 -67 138 -98 240 -104 213
-13 349 105 364 315 l6 75 -59 -40 c-135 -90 -247 -114 -369 -79 -81 24 -132
85 -178 212 -25 70 -43 146 -54 234 -3 25 -6 46 -7 46 0 1 -23 5 -51 8 -75 10
-230 51 -378 101 -140 48 -146 49 -148 38z"/>
<path d="M4486 1302 c-10 -2 -16 -9 -13 -15 2 -7 32 -113 66 -237 34 -124 72
-256 83 -295 l21 -70 23 85 c12 47 34 128 49 180 14 52 32 118 40 145 8 28 23
83 35 124 11 40 18 76 15 79 -5 6 -291 9 -319 4z"/>
</g>
</svg>
